<svg xmlns="http://www.w3.org/2000/svg" viewBox="0 0 512 512">
  <defs>
    <linearGradient id="hl" x1="0" y1="0" x2="512" y2="512" gradientUnits="userSpaceOnUse">
      <stop offset="0" stop-color="#22d3ee"/>
      <stop offset="1" stop-color="#3b82f6"/>
    </linearGradient>
    <filter id="glow" x="-30%" y="-30%" width="160%" height="160%">
      <feGaussianBlur stdDeviation="6" result="b"/>
      <feMerge><feMergeNode in="b"/><feMergeNode in="SourceGraphic"/></feMerge>
    </filter>
  </defs>
  <rect width="512" height="512" fill="#0b1e3f"/>
  <g transform="translate(136 136) scale(3.75)" fill="none" stroke="url(#hl)"
     stroke-linecap="round" stroke-linejoin="round" filter="url(#glow)">
    <path d="M10 30 A 22 22 0 0 1 30 10" stroke-width="2.4"/>
    <path d="M40 15 C 30 13, 21 20, 21 31 C 21 37, 24 40, 24 44 L 20 48 L 26 50 L 26 54" stroke-width="2.6"/>
    <g stroke-width="1.8">
      <path d="M27 24 H 37"/>
      <path d="M31 31 H 42"/>
      <path d="M28 38 H 35"/>
      <path d="M37 24 V 31"/>
    </g>
    <g fill="url(#hl)" stroke="none">
      <circle cx="27" cy="24" r="1.7"/>
      <circle cx="42" cy="31" r="1.7"/>
      <circle cx="28" cy="38" r="1.7"/>
      <circle cx="35" cy="38" r="1.5"/>
    </g>
    <path d="M24 34 L 32 43 L 52 18" stroke-width="5"/>
  </g>
</svg>
